<svg width="133" height="88" viewBox="0 0 133 88" fill="none" xmlns="http://www.w3.org/2000/svg">
<path d="M51.3457 71.1158V87.9995H68.3211V71.1158H51.3457Z" fill="#51C7F4"/>
<path d="M49.7482 71.1158H36.7148C37.5146 78.819 42.6161 85.2516 49.5892 87.9995H49.7482V71.1158Z" fill="#407DC8"/>
<path d="M68.3213 71.1158V87.9995H85.2967V71.1158H68.3213Z" fill="#4CADE5"/>
<path d="M85.2969 71.1158V87.9995H102.273V71.1158H85.2969Z" fill="#4793D6"/>
<path d="M102.272 71.1158V87.9995H119.248V71.1158H102.272Z" fill="#3F7BC7"/>
<path d="M119.248 87.9995H119.731C126.81 85.4868 131.955 78.9236 132.343 71.1158H119.248V87.9995Z" fill="#5A68BB"/>
<path d="M68.3211 54.2316H51.3457V71.1157H68.3211V54.2316Z" fill="#597BC7"/>
<path d="M85.2967 71.1157V54.2316H68.3213V71.1157H85.2967Z" fill="#8862B7"/>
<path d="M102.273 71.1157V54.2316H85.2969V71.1157H102.273Z" fill="#6964B8"/>
<path d="M119.248 71.1157V54.2316H102.272V71.1157H119.248Z" fill="#6646A6"/>
<path d="M119.248 71.1157H132.343C132.359 70.8001 132.368 70.4836 132.368 70.1646C132.368 63.4766 128.881 57.5994 123.617 54.2316H119.248V71.1157Z" fill="#8A63B8"/>
<path d="M66.8465 52.5198V38.9082C65.2928 38.296 63.5997 37.9592 61.8269 37.9592C56.6771 37.9592 52.1937 40.7971 49.8711 44.9861V52.5198H66.8465Z" fill="#8249A9"/>
<path d="M85.2967 54.2317V37.3472H72.0916C71.0753 38.5057 70.1602 39.7543 69.3608 41.08C69.0222 40.913 68.6755 40.7592 68.3213 40.6198V54.2317H85.2967Z" fill="#9439A2"/>
<path d="M102.273 37.3472H85.2969V54.2317H102.273V37.3472Z" fill="#8862B7"/>
<path d="M102.272 54.2317H119.248V52.1646C118.755 52.0044 118.254 51.8632 117.744 51.743C117.181 46.2597 114.901 41.2812 111.449 37.3472H102.272V54.2317Z" fill="#9439A2"/>
<path d="M123.617 54.2317C122.268 53.3679 120.802 52.6697 119.248 52.1646V54.2317H123.617Z" fill="#9C41A6"/>
<path d="M85.2969 29.2499C80.0937 30.5703 75.5161 33.4449 72.0918 37.3474H85.2969V29.2499Z" fill="#8C1D70"/>
<path d="M102.273 37.3474V30.6322C99.0589 29.2262 95.5065 28.4455 91.7703 28.4455C89.5359 28.4455 87.367 28.7246 85.2969 29.2499V37.3474H102.273Z" fill="#7F1957"/>
<path d="M111.449 37.3474C108.94 34.488 105.812 32.1807 102.272 30.6322V37.3474H111.449Z" fill="#961163"/>
<path d="M49.6183 52.7299H32.5605V69.696H49.6183V52.7299Z" fill="#407DC8"/>
<path d="M20.6579 60.1736H10.9521V69.8271H20.6579V60.1736Z" fill="#5A65B9"/>
<path d="M14.236 36.3332H5.95703V44.5676H14.236V36.3332Z" fill="#9239A1"/>
<path d="M14.2361 -0.000181198H8.01074V6.19189H14.2361V-0.000181198Z" fill="#6646A6"/>
<path d="M6.2254 22.8882H0V29.0803H6.2254V22.8882Z" fill="#8664B8"/>
<path d="M17.3484 13.8065H11.123V19.9985H17.3484V13.8065Z" fill="#8664B8"/>
<path d="M50.4436 5.69548H44.2539V11.8525H50.4436V5.69548Z" fill="#6845A6"/>
<path d="M18.7624 32.0002H10.4834V40.2346H18.7624V32.0002Z" fill="#8664B8"/>
<path d="M33.3164 4.65645H25.0371V12.8909H33.3164V4.65645Z" fill="#8664B8"/>
<path d="M30.3358 42.5336H16.7295V56.0669H30.3358V42.5336Z" fill="#9239A1"/>
<path d="M68.1104 6.1921H59.8311V14.4265H68.1104V6.1921Z" fill="#7F1957"/>
<path d="M78.0928 20.7783H69.8135V29.0127H78.0928V20.7783Z" fill="#831B8B"/>
<path d="M29.0996 65.0008H17.8438V76.1958H29.0996V65.0008Z" fill="#5A7CC7"/>
<path d="M36.4741 23.0687H24.0752V35.4009H36.4741V23.0687Z" fill="#8664B8"/>
<path d="M42.6733 16.9024H30.2744V29.2346H42.6733V16.9024Z" fill="#6459B1"/>
<path d="M64.4711 19.1404H48.373V35.1519H64.4711V19.1404Z" fill="#9439A2"/>
<path d="M47.3491 37.6066H34.8301V50.0583H47.3491V37.6066Z" fill="#8664B8"/>
</svg>
